<svg width="653" height="429" viewBox="0 0 653 429" fill="none" xmlns="http://www.w3.org/2000/svg">
<rect opacity="0.3" x="223.011" y="1.01111" width="204.978" height="204.978" rx="59.5" stroke="white" stroke-dasharray="5 5"/>
<rect opacity="0.2" x="190.024" y="-31.9753" width="270.951" height="270.951" rx="89.5" stroke="white" stroke-dasharray="5 5"/>
<rect opacity="0.2" x="149.652" y="-72.3474" width="351.695" height="351.695" rx="99.5" stroke="white" stroke-dasharray="5 5"/>
<rect opacity="0.15" x="101.991" y="-120.009" width="447.018" height="447.018" rx="109.5" stroke="white" stroke-dasharray="5 5"/>
<rect opacity="0.15" x="52.0867" y="-169.913" width="546.827" height="546.827" rx="79.5" stroke="white" stroke-dasharray="5 5"/>
<rect opacity="0.1" x="0.5" y="-221.5" width="650" height="650" rx="79.5" stroke="white" stroke-dasharray="5 5"/>
<g opacity="0.5" filter="url(#filter0_f)">
<path d="M382.756 260.542L269 149.854L370.23 49.9021C460.979 128.892 613.13 260.542 622.537 260.542H382.756Z" fill="url(#paint0_linear)"/>
</g>
<g opacity="0.8" filter="url(#filter1_f)">
<path d="M426.724 260.542L269 149.854L370.23 49.9021C444.107 135.538 552.801 260.542 562.208 260.542H426.724Z" fill="url(#paint1_linear)"/>
</g>
<rect x="265" y="40" width="119.124" height="119.124" rx="30" fill="#188AD6"/>
<rect x="265" y="40" width="119.124" height="119.124" rx="30" fill="url(#paint2_linear)"/>
<path d="M299.041 104.465C296.186 104.465 293.82 103.86 291.942 102.651C290.065 101.442 288.753 99.809 288.007 97.7513L293.91 94.3175C294.913 96.7096 296.688 97.9056 299.234 97.9056C301.343 97.9056 302.398 97.3012 302.398 96.0922C302.398 95.2949 301.794 94.6518 300.585 94.1631C300.07 93.9574 298.938 93.6101 297.189 93.1214C294.72 92.4012 292.765 91.3981 291.325 90.112C289.885 88.8002 289.164 86.9868 289.164 84.6719C289.164 82.1769 290.052 80.1578 291.826 78.6145C293.627 77.0712 295.865 76.2996 298.54 76.2996C300.803 76.2996 302.81 76.8269 304.559 77.8814C306.308 78.936 307.645 80.4664 308.571 82.4727L302.784 85.868C301.935 83.8617 300.533 82.8585 298.578 82.8585C297.755 82.8585 297.125 83.0257 296.688 83.3601C296.276 83.6945 296.071 84.1189 296.071 84.6333C296.071 85.2249 296.379 85.7265 296.996 86.138C297.64 86.5496 298.874 87.0254 300.7 87.5656C302.012 87.9514 303.067 88.3115 303.864 88.6459C304.661 88.9803 305.536 89.469 306.488 90.112C307.439 90.7293 308.147 91.5395 308.61 92.5427C309.073 93.5201 309.304 94.6776 309.304 96.0151C309.304 98.6644 308.365 100.735 306.488 102.227C304.61 103.719 302.128 104.465 299.041 104.465Z" fill="white"/>
<path d="M334.964 100.413C332.238 103.114 328.894 104.465 324.933 104.465C320.972 104.465 317.615 103.114 314.863 100.413C312.137 97.687 310.773 94.3432 310.773 90.3821C310.773 86.421 312.137 83.09 314.863 80.3893C317.615 77.6628 320.972 76.2996 324.933 76.2996C328.894 76.2996 332.238 77.6628 334.964 80.3893C337.717 83.09 339.093 86.421 339.093 90.3821C339.093 94.3432 337.717 97.687 334.964 100.413ZM319.724 95.6678C321.113 97.0311 322.85 97.7127 324.933 97.7127C327.016 97.7127 328.753 97.0311 330.142 95.6678C331.531 94.2789 332.225 92.517 332.225 90.3821C332.225 88.2472 331.531 86.4981 330.142 85.1349C328.753 83.7459 327.016 83.0515 324.933 83.0515C322.85 83.0515 321.113 83.7459 319.724 85.1349C318.335 86.4981 317.641 88.2472 317.641 90.3821C317.641 92.517 318.335 94.2789 319.724 95.6678Z" fill="white"/>
<path d="M350.849 104.465C347.993 104.465 345.627 103.86 343.749 102.651C341.872 101.442 340.56 99.809 339.814 97.7513L345.717 94.3175C346.72 96.7096 348.495 97.9056 351.041 97.9056C353.151 97.9056 354.205 97.3012 354.205 96.0922C354.205 95.2949 353.601 94.6518 352.392 94.1631C351.877 93.9574 350.746 93.6101 348.997 93.1214C346.527 92.4012 344.573 91.3981 343.132 90.112C341.692 88.8002 340.971 86.9868 340.971 84.6719C340.971 82.1769 341.859 80.1578 343.634 78.6145C345.434 77.0712 347.672 76.2996 350.347 76.2996C352.61 76.2996 354.617 76.8269 356.366 77.8814C358.115 78.936 359.452 80.4664 360.378 82.4727L354.591 85.868C353.742 83.8617 352.34 82.8585 350.386 82.8585C349.562 82.8585 348.932 83.0257 348.495 83.3601C348.083 83.6945 347.878 84.1189 347.878 84.6333C347.878 85.2249 348.186 85.7265 348.804 86.138C349.447 86.5496 350.681 87.0254 352.508 87.5656C353.819 87.9514 354.874 88.3115 355.671 88.6459C356.469 88.9803 357.343 89.469 358.295 90.112C359.247 90.7293 359.954 91.5395 360.417 92.5427C360.88 93.5201 361.111 94.6776 361.111 96.0151C361.111 98.6644 360.173 100.735 358.295 102.227C356.417 103.719 353.935 104.465 350.849 104.465Z" fill="white"/>
<path d="M293.115 111.988C294.154 111.988 295.029 112.338 295.739 113.038C296.449 113.737 296.804 114.596 296.804 115.615C296.804 116.634 296.449 117.493 295.739 118.192C295.029 118.892 294.154 119.242 293.115 119.242H291.217V122.791H289.087V111.988H293.115ZM293.115 117.251C293.568 117.251 293.943 117.097 294.242 116.788C294.54 116.469 294.689 116.078 294.689 115.615C294.689 115.142 294.54 114.751 294.242 114.442C293.943 114.133 293.568 113.979 293.115 113.979H291.217V117.251H293.115Z" fill="white"/>
<path d="M310.754 121.387C309.664 122.467 308.337 123.007 306.773 123.007C305.209 123.007 303.882 122.467 302.791 121.387C301.711 120.296 301.171 118.964 301.171 117.39C301.171 115.816 301.711 114.488 302.791 113.408C303.882 112.318 305.209 111.772 306.773 111.772C308.337 111.772 309.664 112.318 310.754 113.408C311.845 114.488 312.39 115.816 312.39 117.39C312.39 118.964 311.845 120.296 310.754 121.387ZM304.288 119.936C304.957 120.595 305.785 120.924 306.773 120.924C307.76 120.924 308.589 120.595 309.257 119.936C309.926 119.267 310.26 118.419 310.26 117.39C310.26 116.361 309.926 115.512 309.257 114.843C308.589 114.175 307.76 113.84 306.773 113.84C305.785 113.84 304.957 114.175 304.288 114.843C303.619 115.512 303.285 116.361 303.285 117.39C303.285 118.419 303.619 119.267 304.288 119.936Z" fill="white"/>
<path d="M323.363 122.791L321.187 119.041H319.566V122.791H317.437V111.988H321.758C322.756 111.988 323.605 112.338 324.304 113.038C325.004 113.737 325.354 114.581 325.354 115.569C325.354 116.237 325.163 116.86 324.783 117.436C324.402 118.002 323.898 118.429 323.27 118.717L325.662 122.791H323.363ZM319.566 113.979V117.174H321.758C322.159 117.174 322.504 117.019 322.792 116.711C323.08 116.392 323.224 116.011 323.224 115.569C323.224 115.126 323.08 114.751 322.792 114.442C322.504 114.133 322.159 113.979 321.758 113.979H319.566Z" fill="white"/>
<path d="M337.385 111.988V114.025H334.469V122.791H332.339V114.025H329.437V111.988H337.385Z" fill="white"/>
<path d="M348.285 122.791L347.637 120.847H343.331L342.683 122.791H340.383L344.164 111.988H346.803L350.6 122.791H348.285ZM344.01 118.856H346.973L345.492 114.442L344.01 118.856Z" fill="white"/>
<path d="M357.328 120.754H361.449V122.791H355.198V111.988H357.328V120.754Z" fill="white"/>
<defs>
<filter id="filter0_f" x="239" y="19.9021" width="413.537" height="270.64" filterUnits="userSpaceOnUse" color-interpolation-filters="sRGB">
<feFlood flood-opacity="0" result="BackgroundImageFix"/>
<feBlend mode="normal" in="SourceGraphic" in2="BackgroundImageFix" result="shape"/>
<feGaussianBlur stdDeviation="15" result="effect1_foregroundBlur"/>
</filter>
<filter id="filter1_f" x="245" y="25.9021" width="341.208" height="258.64" filterUnits="userSpaceOnUse" color-interpolation-filters="sRGB">
<feFlood flood-opacity="0" result="BackgroundImageFix"/>
<feGaussianBlur stdDeviation="12" result="effect1_foregroundBlur"/>
</filter>
<linearGradient id="paint0_linear" x1="431.325" y1="3.63296" x2="446.152" y2="239.324" gradientUnits="userSpaceOnUse">
<stop stop-color="#175786"/>
<stop offset="1" stop-color="#175786" stop-opacity="0"/>
</linearGradient>
<linearGradient id="paint1_linear" x1="431.325" y1="3.63296" x2="446.152" y2="239.324" gradientUnits="userSpaceOnUse">
<stop stop-color="#175786"/>
<stop offset="1" stop-color="#175786" stop-opacity="0"/>
</linearGradient>
<linearGradient id="paint2_linear" x1="277.27" y1="47.6689" x2="368.786" y2="182.131" gradientUnits="userSpaceOnUse">
<stop stop-color="#349FF0"/>
<stop offset="1" stop-color="#2F78C6"/>
</linearGradient>
</defs>
</svg>
